<?xml version="1.0" encoding="UTF-8"?>
<svg width="100mm" height="100mm" viewBox="0 0 100 100" version="1.1" id="svg5">
   <path d="M 84.22163,18.907252 18.839148,84.289736" style="fill:none;fill-opacity:1;stroke:#660099;stroke-width:4;stroke-miterlimit:4;stroke-dasharray:none;stroke-opacity:1;stroke-linecap:round" id="path3541" />
   <path style="fill:none;fill-opacity:0.121495;stroke:none;stroke-width:27.7342;stroke-opacity:1" id="path868" d="M 28.873827,61.657308 A 26.70455,25.379782 0 0 1 40.473812,28.515143 26.70455,25.379782 0 0 1 75.912053,37.76646 26.70455,25.379782 0 0 1 68.071005,71.889914 l -15.010531,-20.9909 z" />
   <path id="path1356" style="fill:none;fill-opacity:1;stroke:#660099;stroke-width:4;stroke-miterlimit:4;stroke-dasharray:none;stroke-opacity:1" d="m 30.221512,72.907371 c 11.768573,11.768555 30.849181,11.768555 42.617754,0 11.768555,-11.768573 11.768554,-30.849181 -10e-7,-42.617754 z" />
   <path style="fill:none;stroke:#660099;stroke-width:3;stroke-linecap:round;stroke-linejoin:round;stroke-miterlimit:4;stroke-dasharray:none;stroke-opacity:1" d="M 30.221512,72.907371 65.868525,29.87749 28.873828,61.657309 57.881474,26.327689 29.187251,51.373505 47.232072,25.538844 26.327689,40.428285 39.540836,20.707171 l -15.579681,6.902391 5.521913,-10.846614 -7.789841,0.69024" id="path4618" />
</svg>